<?xml version="1.0" encoding="UTF-8"?>
<svg version="1.1" xmlns="http://www.w3.org/2000/svg" width="832" height="1248">
<path d="M0 0 C274.56 0 549.12 0 832 0 C832 411.84 832 823.68 832 1248 C557.44 1248 282.88 1248 0 1248 C0 836.16 0 424.32 0 0 Z " fill="#FDFDFD" transform="translate(0,0)"/>
<path d="M0 0 C2.21265158 0.73186318 4.42621043 1.46098858 6.640625 2.1875 C7.73955078 2.5484375 8.83847656 2.909375 9.97070312 3.28125 C14.70030342 4.79747888 19.46744327 6.16195135 24.25 7.5 C45.28478797 13.41287712 45.28478797 13.41287712 55.375 17.25 C62.46098036 19.89786256 69.77537551 21.80986384 77.05078125 23.859375 C81.29625267 25.05563437 85.5284961 26.28412368 89.75 27.5625 C90.72066406 27.85640625 91.69132812 28.1503125 92.69140625 28.453125 C95.1875 29.3125 95.1875 29.3125 97.02734375 30.296875 C99.48781279 31.45369589 101.95911313 32.00817821 104.59570312 32.63378906 C110.61974174 34.21129729 116.51781934 36.25915105 122.4375 38.1875 C123.79289347 38.62653456 125.14836178 39.06533814 126.50390625 39.50390625 C132.49154648 41.44440007 138.47171472 43.40468659 144.44256592 45.39627075 C145.51949078 45.75542635 146.59641563 46.11458195 147.70597458 46.48462105 C148.52487797 46.7578211 149.34378136 47.03102116 150.1875 47.3125 C150.30523924 66.09110936 150.3929252 84.869642 150.44656086 103.64854622 C150.47214667 112.37145585 150.50691225 121.09413382 150.56469727 129.81689453 C150.6151434 137.43558748 150.64693273 145.05411242 150.65794247 152.67296779 C150.66435992 156.69272465 150.67900983 160.71200161 150.71615028 164.73160172 C151.27632085 227.91693104 130.41411281 291.41166716 86.34765625 338.01171875 C84.55068427 339.92567264 82.84371009 341.87434002 81.13671875 343.8671875 C76.77898663 348.86478915 72.12388987 353.56217744 67.43701172 358.24829102 C65.94856763 359.73891615 64.46832723 361.23737017 62.98828125 362.73632812 C56.71447768 369.0464224 50.15605755 374.76505759 43.1875 380.3125 C41.3724197 381.87200185 39.55933674 383.43383812 37.75 385 C25.85433133 394.90283758 12.8497964 403.41399124 -0.25 411.625 C-1.13163818 412.18227783 -2.01327637 412.73955566 -2.92163086 413.3137207 C-3.75057861 413.82507568 -4.57952637 414.33643066 -5.43359375 414.86328125 C-6.1598999 415.31356689 -6.88620605 415.76385254 -7.63452148 416.2277832 C-10.11431892 417.46281739 -12.04651306 418.08014096 -14.8125 418.3125 C-17.06982422 417.4831543 -17.06982422 417.4831543 -19.3671875 416.13671875 C-20.22175537 415.64349121 -21.07632324 415.15026367 -21.95678711 414.64208984 C-22.85792236 414.1002002 -23.75905762 413.55831055 -24.6875 413 C-26.09044312 412.17556396 -26.09044312 412.17556396 -27.52172852 411.33447266 C-35.48463096 406.61172305 -43.22672539 401.61656582 -50.8125 396.3125 C-51.39547852 395.90821777 -51.97845703 395.50393555 -52.57910156 395.08740234 C-64.39905898 386.87204351 -75.69220173 378.03710015 -86.6875 368.75 C-87.60789062 367.98067139 -87.60789062 367.98067139 -88.546875 367.19580078 C-90.00825351 365.94613695 -91.41622394 364.63450606 -92.8125 363.3125 C-92.8125 361.3125 -92.8125 361.3125 -91.4140625 359.90234375 C-90.43566406 359.08443359 -90.43566406 359.08443359 -89.4375 358.25 C-81.65015719 351.62189386 -74.13344602 344.70095083 -66.63012695 337.75512695 C-63.37955629 334.74912531 -60.10987229 331.76728815 -56.8125 328.8125 C-52.42488983 324.87927017 -48.09012734 320.89185797 -43.76513672 316.89013672 C-40.16659868 313.56072686 -36.55623812 310.24494882 -32.9375 306.9375 C-28.28235287 302.67748472 -23.66774303 298.3763584 -19.0625 294.0625 C-14.73464536 290.010662 -10.38417409 286.00898465 -5.890625 282.140625 C-2.4458138 279.11022718 0.90278301 275.97555985 4.26782227 272.85717773 C8.36767905 269.0607068 12.5076388 265.312214 16.66796875 261.58203125 C21.02441166 257.65785554 25.33763444 253.68647172 29.65527344 249.71972656 C32.16427114 247.41541446 34.67602172 245.11410772 37.1875 242.8125 C38.18880883 241.89453861 39.19011091 240.97656986 40.19140625 240.05859375 C42.17781882 238.23766169 44.16484387 236.41740144 46.15234375 234.59765625 C47.14327011 233.69014888 48.13415545 232.7825967 49.125 231.875 C49.61597168 231.42527832 50.10694336 230.97555664 50.61279297 230.51220703 C53.79885239 227.59156617 56.97589385 224.66136762 60.14868164 221.72631836 C76.61973324 206.4927104 76.61973324 206.4927104 83.1875 201.3125 C81.80229553 198.03717873 80.35568851 196.40167709 77.46875 194.3515625 C76.71062012 193.80491943 75.95249023 193.25827637 75.17138672 192.69506836 C74.3517041 192.1150708 73.53202148 191.53507324 72.6875 190.9375 C70.94903728 189.68304298 69.21209393 188.42647807 67.4765625 187.16796875 C66.59258789 186.52778809 65.70861328 185.88760742 64.79785156 185.22802734 C60.82506993 182.312722 56.9399796 179.29034016 53.0625 176.25 C51.57693266 175.08709938 50.09125584 173.92433859 48.60546875 172.76171875 C47.87634277 172.19114746 47.1472168 171.62057617 46.39599609 171.03271484 C42.7405556 168.18546371 39.05862263 165.37313975 35.375 162.5625 C34.67004395 162.02447754 33.96508789 161.48645508 33.23876953 160.93212891 C31.86738325 159.8855362 30.49596494 158.83898546 29.12451172 157.79248047 C25.16750918 154.76911906 21.22282924 151.72977147 17.27734375 148.69140625 C15.22902258 147.11438021 13.17955545 145.53884141 11.12890625 143.96484375 C4.01466745 138.50260047 -3.07079879 133.00434514 -10.14794922 127.49414062 C-16.68326797 122.40787939 -23.24351633 117.35518579 -29.8125 112.3125 C-31.27236328 111.18714844 -31.27236328 111.18714844 -32.76171875 110.0390625 C-47.38121659 98.77025622 -62.06976364 87.59365418 -76.8515625 76.53857422 C-81.38702998 73.14328289 -85.89681037 69.72045543 -90.375 66.25 C-98.73720976 59.78132726 -107.28416893 53.55947882 -115.8125 47.3125 C-115.33072554 51.9375348 -114.33749607 55.71764203 -112.65524292 60.08389282 C-111.18998787 63.95871376 -109.90463419 67.89377516 -108.59765625 71.82421875 C-108.15213661 73.15934258 -108.15213661 73.15934258 -107.69761658 74.5214386 C-107.07249486 76.39612683 -106.44812213 78.27106497 -105.82446289 80.14624023 C-104.88325256 82.97519563 -103.9388686 85.80307704 -102.99414062 88.63085938 C-100.12677182 97.22974636 -97.29462926 105.8312201 -94.66479492 114.50610352 C-93.30075073 118.99756382 -91.86699669 123.46652985 -90.4375 127.9375 C-86.94914935 138.86685245 -86.94914935 138.86685245 -85.23828125 144.3203125 C-82.78717921 152.13260263 -80.2922745 159.92494331 -77.6875 167.6875 C-76.95695488 169.87747178 -76.22737558 172.0677611 -75.49853516 174.25830078 C-75.05082846 175.59887164 -74.60011778 176.93844409 -74.14599609 178.27685547 C-73.54437213 180.05579131 -72.95920377 181.84026751 -72.375 183.625 C-72.04628906 184.61113281 -71.71757812 185.59726562 -71.37890625 186.61328125 C-70.40628383 191.24833017 -71.74401579 194.62120635 -74.1484375 198.578125 C-74.62958008 199.37629639 -75.11072266 200.17446777 -75.60644531 200.99682617 C-76.12819336 201.84349854 -76.64994141 202.6901709 -77.1875 203.5625 C-77.72987305 204.45364502 -78.27224609 205.34479004 -78.83105469 206.26293945 C-83.03059396 213.12785316 -87.36136953 219.90189756 -91.765625 226.63671875 C-95.49008987 232.33494949 -99.14808255 238.07554904 -102.8125 243.8125 C-107.3347708 250.88771667 -111.8656368 257.95672014 -116.4375 265 C-121.82844903 273.30780091 -127.14260962 281.66406335 -132.453125 290.0234375 C-132.99904297 290.87905273 -133.54496094 291.73466797 -134.10742188 292.61621094 C-135.32586287 294.54296672 -136.52857969 296.47970257 -137.72070312 298.42285156 C-138.34396484 299.43057617 -138.96722656 300.43830078 -139.609375 301.4765625 C-140.17495117 302.40162598 -140.74052734 303.32668945 -141.32324219 304.27978516 C-141.81469727 304.95058105 -142.30615234 305.62137695 -142.8125 306.3125 C-143.4725 306.3125 -144.1325 306.3125 -144.8125 306.3125 C-146.4166446 304.22094223 -147.87577507 302.14146679 -149.3125 299.9375 C-149.97572266 298.92308838 -149.97572266 298.92308838 -150.65234375 297.88818359 C-169.6620943 268.41095354 -181.98136144 234.75892971 -185.56141663 199.75964355 C-185.71895502 198.22422102 -185.88582079 196.68969647 -186.06628418 195.15679932 C-187.09303713 185.58527805 -187.04260705 175.98615794 -187.12890625 166.37109375 C-187.14957514 164.40234543 -187.17057335 162.43360054 -187.19187927 160.46485901 C-187.2357158 156.32856444 -187.27660269 152.19225505 -187.31518555 148.0559082 C-187.3634301 142.89214616 -187.41726133 137.72846355 -187.47315407 132.56477928 C-187.76459929 105.48002243 -187.87342147 78.39872045 -187.8125 51.3125 C-177.48161905 47.37642017 -167.11097244 43.64170817 -156.62890625 40.125 C-155.23509279 39.65497332 -153.84137247 39.18467036 -152.44773865 38.71411133 C-148.82367424 37.49107947 -145.19861626 36.27102331 -141.57324219 35.05187988 C-135.09060993 32.87144321 -128.60959768 30.68619728 -122.12890625 28.5 C-121.44279266 28.26865797 -120.75667908 28.03731594 -120.04977417 27.79896355 C-110.9545849 24.73111529 -101.8774923 21.61984533 -92.83813477 18.39086914 C-89.62668653 17.24627406 -86.4032426 16.14898888 -83.1640625 15.0859375 C-80.60996319 14.2458849 -78.06224395 13.38739523 -75.51391602 12.5300293 C-69.23746208 10.4232201 -62.93938292 8.40818176 -56.60546875 6.48046875 C-51.58158912 4.93346565 -46.57183827 3.34336979 -41.5625 1.75 C-40.63945068 1.45689941 -39.71640137 1.16379883 -38.76538086 0.86181641 C-37.86827393 0.57612793 -36.97116699 0.29043945 -36.046875 -0.00390625 C-35.16322266 -0.28121582 -34.27957031 -0.55852539 -33.36914062 -0.84423828 C-31.72718201 -1.38580867 -30.09825351 -1.96968443 -28.49023438 -2.60498047 C-18.48358439 -6.4727835 -9.77353881 -3.32943043 0 0 Z " fill="#2F427F" transform="translate(439.8125,297.6875)"/>
<path d="M0 0 C0.74966004 7.77926552 1.14258403 15.46276687 1.11352539 23.27636719 C1.11367142 24.33150513 1.11381744 25.38664307 1.1139679 26.47375488 C1.11327869 29.91481683 1.10553341 33.35582267 1.09765625 36.796875 C1.09578854 39.20111054 1.0943663 41.60534646 1.09336853 44.00958252 C1.08957118 50.30262321 1.07976496 56.5956404 1.06866455 62.88867188 C1.0583903 69.32421552 1.05385808 75.759763 1.04882812 82.1953125 C1.03813992 94.79688496 1.02129265 107.39844122 1 120 C-4.30810466 120.30147564 -6.67832307 118.28808137 -10.5625 114.9375 C-11.89855736 113.82643289 -13.23723591 112.71851237 -14.578125 111.61328125 C-15.64836914 110.72890381 -15.64836914 110.72890381 -16.74023438 109.82666016 C-20.67743167 106.64406398 -24.74756211 103.6415292 -28.8125 100.625 C-35.28942731 95.80301381 -41.7084268 90.92023582 -48.0625 85.9375 C-54.89825767 80.58175723 -61.84486141 75.39975532 -68.85742188 70.27832031 C-75.47060979 65.43211923 -81.95039319 60.42681904 -88.390625 55.35351562 C-89.09832031 54.79728516 -89.80601562 54.24105469 -90.53515625 53.66796875 C-91.157854 53.17578857 -91.78055176 52.6836084 -92.42211914 52.17651367 C-94.00536306 50.92393238 -94.00536306 50.92393238 -96 50 C-95.51822554 54.6250348 -94.52499607 58.40514203 -92.84274292 62.77139282 C-91.37748787 66.64621376 -90.09213419 70.58127516 -88.78515625 74.51171875 C-88.33963661 75.84684258 -88.33963661 75.84684258 -87.88511658 77.2089386 C-87.25999486 79.08362683 -86.63562213 80.95856497 -86.01196289 82.83374023 C-85.07075256 85.66269563 -84.1263686 88.49057704 -83.18164062 91.31835938 C-80.31427182 99.91724636 -77.48212926 108.5187201 -74.85229492 117.19360352 C-73.48825073 121.68506382 -72.05449669 126.15402985 -70.625 130.625 C-67.13664935 141.55435245 -67.13664935 141.55435245 -65.42578125 147.0078125 C-62.97467921 154.82010263 -60.4797745 162.61244331 -57.875 170.375 C-57.14445488 172.56497178 -56.41487558 174.7552611 -55.68603516 176.94580078 C-55.23832846 178.28637164 -54.78761778 179.62594409 -54.33349609 180.96435547 C-53.73187213 182.74329131 -53.14670377 184.52776751 -52.5625 186.3125 C-52.23378906 187.29863281 -51.90507812 188.28476562 -51.56640625 189.30078125 C-50.59378383 193.93583017 -51.93151579 197.30870635 -54.3359375 201.265625 C-54.81708008 202.06379639 -55.29822266 202.86196777 -55.79394531 203.68432617 C-56.31569336 204.53099854 -56.83744141 205.3776709 -57.375 206.25 C-57.91737305 207.14114502 -58.45974609 208.03229004 -59.01855469 208.95043945 C-63.21809396 215.81535316 -67.54886953 222.58939756 -71.953125 229.32421875 C-75.67758987 235.02244949 -79.33558255 240.76304904 -83 246.5 C-87.5222708 253.57521667 -92.0531368 260.64422014 -96.625 267.6875 C-102.01594903 275.99530091 -107.33010962 284.35156335 -112.640625 292.7109375 C-113.18654297 293.56655273 -113.73246094 294.42216797 -114.29492188 295.30371094 C-115.51336287 297.23046672 -116.71607969 299.16720257 -117.90820312 301.11035156 C-118.53146484 302.11807617 -119.15472656 303.12580078 -119.796875 304.1640625 C-120.36245117 305.08912598 -120.92802734 306.01418945 -121.51074219 306.96728516 C-122.00219727 307.63808105 -122.49365234 308.30887695 -123 309 C-123.66 309 -124.32 309 -125 309 C-126.6041446 306.90844223 -128.06327507 304.82896679 -129.5 302.625 C-130.16322266 301.61058838 -130.16322266 301.61058838 -130.83984375 300.57568359 C-149.8495943 271.09845354 -162.16886144 237.44642971 -165.74891663 202.44714355 C-165.90645502 200.91172102 -166.07332079 199.37719647 -166.25378418 197.84429932 C-167.28053713 188.27277805 -167.23010705 178.67365794 -167.31640625 169.05859375 C-167.33707514 167.08984543 -167.35807335 165.12110054 -167.37937927 163.15235901 C-167.4232158 159.01606444 -167.46410269 154.87975505 -167.50268555 150.7434082 C-167.5509301 145.57964616 -167.60476133 140.41596355 -167.66065407 135.25227928 C-167.95209929 108.16752243 -168.06092147 81.08622045 -168 54 C-157.66911905 50.06392017 -147.29847244 46.32920817 -136.81640625 42.8125 C-135.42259279 42.34247332 -134.02887247 41.87217036 -132.63523865 41.40161133 C-129.01117424 40.17857947 -125.38611626 38.95852331 -121.76074219 37.73937988 C-115.27810993 35.55894321 -108.79709768 33.37369728 -102.31640625 31.1875 C-101.63029266 30.95615797 -100.94417908 30.72481594 -100.23727417 30.48646355 C-91.1420849 27.41861529 -82.0649923 24.30734533 -73.02563477 21.07836914 C-69.81418653 19.93377406 -66.5907426 18.83648888 -63.3515625 17.7734375 C-60.79746319 16.9333849 -58.24974395 16.07489523 -55.70141602 15.2175293 C-49.43158733 13.11294399 -43.14081492 11.09800691 -36.8125 9.17578125 C-30.69755747 7.28992295 -24.60610662 5.32998861 -18.51342773 3.37353516 C-17.60020752 3.08140137 -16.6869873 2.78926758 -15.74609375 2.48828125 C-14.92810303 2.22571533 -14.1101123 1.96314941 -13.26733398 1.69262695 C-8.66978925 0.2881654 -4.85325247 -0.09333178 0 0 Z " fill="#243263" transform="translate(420,295)"/>
<path d="M0 0 C4.30321891 2.75765146 8.20652612 5.76693749 12.0625 9.125 C16.90176317 13.28047688 21.83558101 17.23569518 26.91674805 21.09277344 C31.30566826 24.43683695 35.60044959 27.88620118 39.875 31.375 C53.2655883 42.30308045 66.80433572 53.03730412 80.42578125 63.67578125 C87.37424866 69.10994021 94.25650745 74.61584552 101.07373047 80.21411133 C104.29969734 82.85235305 107.54671239 85.43430502 110.90234375 87.90625 C111.51005615 88.35669678 112.11776855 88.80714355 112.74389648 89.27124023 C114.39420931 90.48471229 116.05611454 91.68237369 117.71875 92.87890625 C118.4715625 93.57886719 119.224375 94.27882813 120 95 C120 99 120 99 117.97265625 101.234375 C117.01230469 102.06453125 116.05195313 102.8946875 115.0625 103.75 C113.95690651 104.72364262 112.85282871 105.69900812 111.75 106.67578125 C111.14800781 107.20510254 110.54601562 107.73442383 109.92578125 108.27978516 C106.4034197 111.42615426 102.99051295 114.68911755 99.5625 117.9375 C94.36429606 122.84694704 89.14308719 127.72812772 83.875 132.5625 C80.02142586 136.09892674 76.25998876 139.69927436 72.59765625 143.43359375 C70.83533729 145.16144192 68.99696908 146.76679173 67.125 148.375 C64.1153247 150.96634205 61.28911384 153.67254783 58.5 156.5 C55.09629724 159.95048906 51.57561011 163.16637394 47.8984375 166.3203125 C46.02029247 167.98204576 44.25694484 169.71125525 42.5 171.5 C40.24202057 173.79326036 37.94003496 175.96428028 35.5 178.0625 C31.48638698 181.52385232 27.61697027 185.12698885 23.75 188.75 C17.20718706 194.87887492 10.61859526 200.95305129 4 207 C1.99926336 208.83253021 -0.00033606 210.66629942 -2 212.5 C-2.99738906 213.41406989 -3.99478489 214.32813239 -4.9921875 215.2421875 C-7.01936769 217.10032595 -9.0452699 218.95984479 -11.0703125 220.8203125 C-18.14546048 227.31808149 -25.27019557 233.75843344 -32.421875 240.171875 C-40.05049045 247.02305193 -47.60510742 253.95371018 -55.1484375 260.8984375 C-60.17150242 265.51849455 -65.21569606 270.10291403 -70.3828125 274.5625 C-71.76889772 275.79457575 -73.0807962 277.1092382 -74.375 278.4375 C-76 280 -76 280 -78 280 C-76.69755884 276.48068735 -75.15809119 273.48410254 -73.0859375 270.359375 C-72.49804443 269.46661865 -71.91015137 268.5738623 -71.30444336 267.65405273 C-70.66772705 266.69571533 -70.03101074 265.73737793 -69.375 264.75 C-68.00816146 262.67380425 -66.64230941 260.59695878 -65.27734375 258.51953125 C-64.21749268 256.90812256 -64.21749268 256.90812256 -63.13623047 255.26416016 C-59.69927466 250.01249169 -56.31610762 244.72683104 -52.9375 239.4375 C-52.26960449 238.39239258 -51.60170898 237.34728516 -50.91357422 236.27050781 C-46.02799536 228.6201112 -41.15479951 220.96183921 -36.28442383 213.30175781 C-28.53748751 201.12097156 -20.74497953 188.96931493 -12.95898438 176.81347656 C-10.93073552 173.64664698 -8.90279196 170.47962216 -6.875 167.3125 C-6.21072998 166.27520752 -5.54645996 165.23791504 -4.86206055 164.16918945 C-1.7031709 159.23388436 1.45042802 154.29537544 4.58984375 149.34765625 C5.16637695 148.43910889 5.74291016 147.53056152 6.33691406 146.59448242 C7.48101805 144.79140174 8.62490075 142.98818062 9.76855469 141.18481445 C13.43389448 135.41969287 17.15769565 129.69591118 20.91186523 123.98828125 C28.12177382 113.03630489 28.12177382 113.03630489 35 101.875 C35.61875 100.84117187 36.2375 99.80734375 36.875 98.7421875 C39.03662912 93.47321651 36.18397635 88.65416989 34.10546875 83.66796875 C33.6558931 82.57459702 33.6558931 82.57459702 33.19723511 81.45913696 C32.19836199 79.03342917 31.19293636 76.6104939 30.1875 74.1875 C29.48395569 72.48215435 28.78075662 70.77666623 28.07788086 69.07104492 C23.92094643 58.99667976 19.72503289 48.93861636 15.5234375 38.8828125 C15.06820206 37.79267349 14.61296661 36.70253448 14.14393616 35.57936096 C11.89686321 30.19906341 9.64639976 24.82023487 7.3894043 19.4440918 C6.56291115 17.46927056 5.7364915 15.49441856 4.91015625 13.51953125 C4.33779739 12.16113632 4.33779739 12.16113632 3.75387573 10.77529907 C3.40463043 9.93913055 3.05538513 9.10296204 2.69555664 8.24145508 C2.2383297 7.15215446 2.2383297 7.15215446 1.77186584 6.04084778 C1.01698116 4.04489894 0.47222211 2.07919999 0 0 Z " fill="#253465" transform="translate(360,401)"/>
<path d="M0 0 C0.87454834 0.00523682 1.74909668 0.01047363 2.65014648 0.01586914 C3.59438477 0.0190918 4.53862305 0.02231445 5.51147461 0.02563477 C6.50469727 0.03401367 7.49791992 0.04239258 8.52124023 0.05102539 C9.51833008 0.05553711 10.51541992 0.06004883 11.54272461 0.06469727 C14.01478872 0.07652532 16.48673541 0.0930069 18.95874023 0.11352539 C22.02331745 7.2638702 24.42492263 14.54482726 26.67602539 21.98388672 C28.17231239 26.86279676 29.91429195 31.56103617 31.84350586 36.28393555 C33.89788936 41.49634903 35.70820924 46.79708566 37.53295898 52.09326172 C38.21661751 54.07384617 38.90785829 56.05168507 39.59936523 58.02954102 C40.03732549 59.29565794 40.47484225 60.56192839 40.91186523 61.82836914 C41.30535156 62.96395264 41.69883789 64.09953613 42.10424805 65.26953125 C42.95874023 68.11352539 42.95874023 68.11352539 42.95874023 71.11352539 C43.61874023 71.11352539 44.27874023 71.11352539 44.95874023 71.11352539 C45.05380859 70.54029541 45.14887695 69.96706543 45.24682617 69.37646484 C46.56668208 62.09487466 48.78808031 55.28267601 51.20874023 48.30102539 C54.92012489 37.39869319 58.24560951 26.44953336 61.32543945 15.35522461 C62.76943465 10.24390468 64.37108586 5.18180666 65.95874023 0.11352539 C73.54874023 0.11352539 81.13874023 0.11352539 88.95874023 0.11352539 C86.44694622 11.41659845 82.93204637 22.23010163 79.23876953 33.18432617 C77.54916938 38.23461771 75.99007459 43.307544 74.52124023 48.42602539 C72.38005501 55.88065223 69.95765779 63.22520906 67.48339844 70.57519531 C64.20392992 80.32523464 61.14908055 90.10394159 58.57202148 100.06665039 C57.95874023 102.11352539 57.95874023 102.11352539 56.95874023 103.11352539 C55.10504412 103.20090184 53.24806483 103.22050692 51.39233398 103.21118164 C50.26762695 103.20795898 49.14291992 103.20473633 47.98413086 103.20141602 C46.80012695 103.19303711 45.61612305 103.1846582 44.39624023 103.17602539 C43.20836914 103.17151367 42.02049805 103.16700195 40.79663086 103.16235352 C37.85061797 103.15052214 34.90470343 103.13403826 31.95874023 103.11352539 C31.65282959 102.19055664 31.34691895 101.26758789 31.03173828 100.31665039 C23.80863141 78.5350921 16.46742557 56.79832225 8.95874023 35.11352539 C6.48069428 37.59157135 6.09596524 39.47392698 5.11499023 42.83227539 C4.76694336 44.0040332 4.41889648 45.17579102 4.06030273 46.38305664 C3.69678711 47.61411133 3.33327148 48.84516602 2.95874023 50.11352539 C2.22317941 52.5001855 1.48358103 54.8856049 0.73999023 57.26977539 C0.36487305 58.47762695 -0.01024414 59.68547852 -0.39672852 60.92993164 C-1.15974935 63.38566081 -1.92277018 65.84138997 -2.68579102 68.29711914 C-3.43908847 70.72268519 -4.19170106 73.14846404 -4.94360352 75.57446289 C-5.66267154 77.89288152 -6.38394423 80.21061777 -7.10766602 82.52758789 C-7.61620117 84.1634082 -7.61620117 84.1634082 -8.13500977 85.83227539 C-8.57876953 87.25443359 -8.57876953 87.25443359 -9.03149414 88.70532227 C-10.44765247 93.48519904 -11.72955349 98.3039357 -13.04125977 103.11352539 C-21.62125977 103.11352539 -30.20125977 103.11352539 -39.04125977 103.11352539 C-39.6093335 101.39883057 -40.17740723 99.68413574 -40.76269531 97.91748047 C-43.41397202 89.91897264 -46.07021007 81.92211854 -48.72875977 73.92602539 C-48.96705379 73.2091367 -49.20534782 72.492248 -49.45086288 71.75363541 C-55.95474291 52.19059268 -62.52580469 32.65901467 -69.48339844 13.25146484 C-69.73096893 12.55828156 -69.97853943 11.86509827 -70.23361206 11.15090942 C-70.87947783 9.34518562 -71.53008945 7.54116116 -72.18115234 5.73730469 C-73.04125977 3.11352539 -73.04125977 3.11352539 -73.04125977 1.11352539 C-64.79125977 1.11352539 -56.54125977 1.11352539 -48.04125977 1.11352539 C-43.48266602 14.78930664 -38.92407227 28.46508789 -34.36547852 42.14086914 C-33.9861618 43.27833588 -33.9861618 43.27833588 -33.59918213 44.43878174 C-33.10291509 45.92822627 -32.60741272 47.41792583 -32.11273193 48.90789795 C-31.02114062 52.1931365 -29.91713885 55.47200048 -28.78442383 58.7434082 C-28.2347998 60.33813965 -28.2347998 60.33813965 -27.67407227 61.96508789 C-27.35583496 62.87339355 -27.03759766 63.78169922 -26.7097168 64.7175293 C-26.04125977 67.11352539 -26.04125977 67.11352539 -26.04125977 71.11352539 C-25.38125977 71.11352539 -24.72125977 71.11352539 -24.04125977 71.11352539 C-23.77829102 69.82961914 -23.51532227 68.54571289 -23.24438477 67.22290039 C-22.11195584 62.13293038 -20.50242125 57.28352522 -18.79125977 52.36352539 C-16.32223009 45.12078056 -14.04031655 37.85761133 -11.97875977 30.48852539 C-9.99739792 23.41289908 -7.93255959 16.37337824 -5.72875977 9.36352539 C-5.34675415 8.13835205 -5.34675415 8.13835205 -4.95703125 6.88842773 C-2.82207501 0.15695071 -2.82207501 0.15695071 0 0 Z " fill="#26315B" transform="translate(355.041259765625,795.886474609375)"/>
<path d="M0 0 C0.5671875 0.24234375 1.134375 0.4846875 1.71875 0.734375 C1.38875 1.064375 1.05875 1.394375 0.71875 1.734375 C0.61979948 3.30941467 0.5907587 4.88889679 0.58935547 6.46704102 C0.58623856 7.48944382 0.58312164 8.51184662 0.57991028 9.56523132 C0.58189926 10.6948378 0.58388824 11.82444427 0.5859375 12.98828125 C0.58402657 14.757799 0.58402657 14.757799 0.58207703 16.56306458 C0.58056521 19.7997113 0.58406943 23.03630197 0.59038162 26.27294159 C0.59374001 28.29087062 0.59492091 30.30878957 0.59542847 32.32672119 C0.60362158 55.00245008 0.91478291 77.66438769 1.45068359 100.33422852 C1.47548294 101.46358322 1.50028229 102.59293793 1.52583313 103.7565155 C1.57217079 105.85413367 1.6230911 107.95165799 1.67961121 110.04902649 C1.7812446 114.75058362 1.72669681 119.10819487 0.71875 123.734375 C1.37875 123.734375 2.03875 123.734375 2.71875 123.734375 C2.71875 124.394375 2.71875 125.054375 2.71875 125.734375 C-1.10640203 125.15279533 -3.84480838 124.05129695 -7.16015625 122.07421875 C-8.07539063 121.53192627 -8.990625 120.98963379 -9.93359375 120.4309082 C-10.89394531 119.85042725 -11.85429687 119.26994629 -12.84375 118.671875 C-13.83375 118.07914795 -14.82375 117.4864209 -15.84375 116.87573242 C-22.79862788 112.68829733 -29.63334769 108.39726986 -36.28125 103.734375 C-36.81588867 103.36280273 -37.35052734 102.99123047 -37.90136719 102.60839844 C-49.76583041 94.34986769 -61.11381848 85.49878591 -72.15625 76.171875 C-72.76984375 75.65898926 -73.3834375 75.14610352 -74.015625 74.61767578 C-75.47700351 73.36801195 -76.88497394 72.05638106 -78.28125 70.734375 C-78.28125 68.734375 -78.28125 68.734375 -76.8828125 67.32421875 C-76.23054688 66.77894531 -75.57828125 66.23367188 -74.90625 65.671875 C-67.11890719 59.04376886 -59.60219602 52.12282583 -52.09887695 45.17700195 C-48.84830629 42.17100031 -45.57862229 39.18916315 -42.28125 36.234375 C-37.33534564 31.80066786 -32.45838346 27.2949408 -27.58203125 22.78515625 C-23.44935984 18.96337637 -19.30787212 15.15164572 -15.14453125 11.36328125 C-13.22563315 9.6014553 -11.3271625 7.81713502 -9.44921875 6.01171875 C-8.56878906 5.17769531 -7.68835938 4.34367188 -6.78125 3.484375 C-6.0078125 2.73671875 -5.234375 1.9890625 -4.4375 1.21875 C-2.28125 -0.265625 -2.28125 -0.265625 0 0 Z " fill="#1A2444" transform="translate(425.28125,590.265625)"/>
<path d="M0 0 C0.98097656 0.31324219 1.96195312 0.62648438 2.97265625 0.94921875 C9.61676423 3.3134372 9.61676423 3.3134372 10.91796875 5.64453125 C11.0439297 9.26141 9.77605738 12.39766655 8.5625 15.75 C8.31951172 16.44738281 8.07652344 17.14476562 7.82617188 17.86328125 C7.22689752 19.57885098 6.61470115 21.28989715 6 23 C2.6245304 22.42858543 -0.12798375 21.58364785 -3.1875 20.0625 C-12.71029012 15.73395904 -23.80446841 14.21009052 -33.9375 17.25 C-37.4180141 18.60353326 -39.97077682 19.73559749 -42 23 C-42.53163989 26.86220747 -42.23879188 30.28362435 -41 34 C-37.99556411 35.17122077 -35.09265638 36.11456824 -32 37 C-30.91460937 37.32097656 -29.82921875 37.64195312 -28.7109375 37.97265625 C-23.12507499 39.60135008 -17.54291902 41.12266164 -11.875 42.4375 C-2.72388271 44.70081109 7.5661453 47.64337336 13.20703125 55.73046875 C17.30813621 62.52699958 17.95249029 69.18588065 17 77 C14.37967291 84.93833411 10.21813136 91.61296716 3 96 C-13.4499263 103.71153216 -34.04727348 104.45668353 -51.4609375 98.89453125 C-56.70170475 96.79175427 -61.48098802 94.38925898 -66 91 C-65.59350785 89.49721085 -65.17410792 87.99791308 -64.75 86.5 C-64.51796875 85.6646875 -64.2859375 84.829375 -64.046875 83.96875 C-62.6940446 80.13236527 -60.88155087 76.6004707 -59 73 C-57.865625 73.55429687 -56.73125 74.10859375 -55.5625 74.6796875 C-54.04185511 75.41184985 -52.52101107 76.14359867 -51 76.875 C-50.25621094 77.23980469 -49.51242188 77.60460937 -48.74609375 77.98046875 C-41.35173037 81.51690341 -34.74057039 83.2846322 -26.4375 83.25 C-25.19871094 83.25515625 -23.95992187 83.2603125 -22.68359375 83.265625 C-17.40532242 82.88500734 -13.331213 81.99132883 -9.0625 78.8125 C-6.73518639 76.08943573 -6.73518639 76.08943573 -6.4375 72.4375 C-7.1066157 68.34845963 -7.82270245 67.55520531 -11 65 C-13.42543744 64.01026041 -15.68576606 63.21473773 -18.1875 62.5 C-18.88584961 62.28915771 -19.58419922 62.07831543 -20.30371094 61.86108398 C-24.69759432 60.56591591 -29.11376739 59.50089553 -33.58959961 58.53222656 C-45.41484979 55.96111329 -55.91679266 52.47636055 -63 42 C-66.7774687 35.35319192 -65.91283511 26.3960573 -65 19 C-62.54364756 11.28537217 -56.80070171 6.10443634 -50 2 C-35.07581352 -5.38330794 -15.64010264 -5.09767562 0 0 Z " fill="#253058" transform="translate(261,799)"/>
<path d="M0 0 C25.41 0 50.82 0 77 0 C77 5.94 77 11.88 77 18 C59.18 18 41.36 18 23 18 C23 27.57 23 37.14 23 47 C39.17 47 55.34 47 72 47 C72 53.27 72 59.54 72 66 C56.16 66 40.32 66 24 66 C24 78.21 24 90.42 24 103 C16.41 103 8.82 103 1 103 C0.11655159 79.82118225 -0.12432783 56.694738 -0.0625 33.5 C-0.041875 22.445 -0.02125 11.39 0 0 Z " fill="#2A355E" transform="translate(509,795)"/>
<path d="M0 0 C29.37 0 58.74 0 89 0 C89 5.94 89 11.88 89 18 C78.44 18 67.88 18 57 18 C57 45.72 57 73.44 57 102 C49.41 102 41.82 102 34 102 C34 74.28 34 46.56 34 18 C22.78 18 11.56 18 0 18 C0 12.06 0 6.12 0 0 Z " fill="#27325C" transform="translate(593,795)"/>
<path d="M0 0 C7.26 0 14.52 0 22 0 C22.75360724 34.00652671 23.13503882 67.98522199 23 102 C15.41 102 7.82 102 0 102 C0 68.34 0 34.68 0 0 Z " fill="#253059" transform="translate(460,796)"/>
<path d="M0 0 C0.66 0.33 1.32 0.66 2 1 C1.030625 1.639375 0.06125 2.27875 -0.9375 2.9375 C-3.76036269 4.6965259 -3.76036269 4.6965259 -5 6 C-5.16023562 8.88252645 -5.25954029 11.74378527 -5.31640625 14.62890625 C-5.33718735 15.49313705 -5.35796844 16.35736786 -5.37937927 17.24778748 C-5.44497114 20.01927445 -5.50380418 22.79085921 -5.5625 25.5625 C-5.60567608 27.43685923 -5.64929006 29.31120843 -5.69335938 31.18554688 C-5.80066227 35.79026336 -5.90190215 40.39507858 -6 45 C-6.33 45 -6.66 45 -7 45 C-7 31.14 -7 17.28 -7 3 C-4.69 2.01 -2.38 1.02 0 0 Z " fill="#495580" transform="translate(259,346)"/>
<path d="M0 0 C0.66 0 1.32 0 2 0 C2.33 5.94 2.66 11.88 3 18 C2.01 18 1.02 18 0 18 C0 12.06 0 6.12 0 0 Z " fill="#3A486C" transform="translate(593,795)"/>
<path d="M0 0 C1.23593891 3.70781672 0.5678132 4.67510253 -0.9375 8.1875 C-1.31777344 9.08855469 -1.69804687 9.98960937 -2.08984375 10.91796875 C-2.54037109 11.94857422 -2.54037109 11.94857422 -3 13 C-4.2942471 10.41150579 -3.81710662 9.29019914 -3.1875 6.5 C-3.01605469 5.7059375 -2.84460938 4.911875 -2.66796875 4.09375 C-2 2 -2 2 0 0 Z " fill="#1E2B53" transform="translate(414,825)"/>
<path d="M0 0 C0.99 0.33 1.98 0.66 3 1 C0.36 2.98 -2.28 4.96 -5 7 C-5.33 6.01 -5.66 5.02 -6 4 C-4.35 3.67 -2.7 3.34 -1 3 C-0.67 2.01 -0.34 1.02 0 0 Z " fill="#3A436E" transform="translate(267,889)"/>
<path d="M0 0 C-1.29299694 2.88437779 -2.65941363 4.87219421 -5 7 C-5.99 6.67 -6.98 6.34 -8 6 C-7.0479279 4.99403703 -6.08812654 3.99538437 -5.125 3 C-4.59132813 2.443125 -4.05765625 1.88625 -3.5078125 1.3125 C-2 0 -2 0 0 0 Z " fill="#263150" transform="translate(381,630)"/>
<path d="M0 0 C0.33 0.66 0.66 1.32 1 2 C0.06553465 4.03144641 -0.93224776 6.03533587 -2 8 C-2.66 8 -3.32 8 -4 8 C-3.40138258 5.64828869 -2.73075648 3.3140622 -2 1 C-1.34 0.67 -0.68 0.34 0 0 Z " fill="#2D3D5C" transform="translate(199,882)"/>
<path d="M0 0 C-6.625 2.875 -6.625 2.875 -10 4 C-10.66 3.34 -11.32 2.68 -12 2 C-10.75579353 1.4654744 -9.50429064 0.94791389 -8.25 0.4375 C-7.55390625 0.14746094 -6.8578125 -0.14257812 -6.140625 -0.44140625 C-3.69987216 -1.07831803 -2.3596345 -0.80248831 0 0 Z " fill="#4E5876" transform="translate(225,798)"/>
<path d="M0 0 C0.66 1.32 1.32 2.64 2 4 C0.71034824 5.37562854 -0.62689293 6.70766393 -2 8 C-2.66 8 -3.32 8 -4 8 C-2.87548273 5.0280615 -1.77706209 2.66559313 0 0 Z " fill="#4A5975" transform="translate(286,673)"/>
</svg>
